# xmcd
#
# Track frame offsets:
#	150
#	17887
#	34507
#	48541
#	68825
#	85333
#	101741
#	117293
#	133162
#	150596
#	167163
#	179723
#	196047
#	217464
#	234250
#	250767
#	267267
#	284309
#	304495
#	323917
#
# Disc length: 4586 seconds
#
# Revision: 3
# Processed by: cddbd v1.5.2PL0 Copyright (c) Steve Scherf et al.
# Submitted via: audiograbber 1.83.01
#
DISCID=2911e814
DTITLE=Various Artist - Zoom Pop Box 2014 Disc 3
DYEAR=2014
DGENRE=Karaoke
TTITLE0=Enrique Iglesias and Pitbull - I'm A Freak 
TTITLE1=Example - One More Day (Stay With Me)
TTITLE2=Fifth Harmony - Boss
TTITLE3=Foxes - Glorious
TTITLE4=Foxes - Holding Onto Heaven
TTITLE5=George Ezra - Budapest
TTITLE6=Gorgon City - Ready For Your Love (Ft. Mnek)
TTITLE7=G.R.L - Ugly Heart
TTITLE8=Idina Menzel - Let It Go
TTITLE9=Iggy Azalea and Rita Ora - Black Widow 
TTITLE10=Jack White - Lazaretto
TTITLE11=Jessie J and Ariana Grande and Nicki Minaj - Bang Bang 
TTITLE12=John Legend - All Of Me
TTITLE13=John Martin - Anywhere For You
TTITLE14=Katy B - Still
TTITLE15=Katy Perry - This Is How We Do
TTITLE16=Katy Perry and Juicy J (Duet) - Dark Horse 
TTITLE17=Kiesza - Hideaway
TTITLE18=Kylie Minogue - Into The Blue
TTITLE19=Lana Del Rey - West Coast
EXTD=
EXTT0=
EXTT1=
EXTT2=
EXTT3=
EXTT4=
EXTT5=
EXTT6=
EXTT7=
EXTT8=
EXTT9=
EXTT10=
EXTT11=
EXTT12=
EXTT13=
EXTT14=
EXTT15=
EXTT16=
EXTT17=
EXTT18=
EXTT19=
PLAYORDER=
